<?xml version="1.0" standalone="no"?>
<!DOCTYPE svg PUBLIC "-//W3C//DTD SVG 20010904//EN"
 "http://www.w3.org/TR/2001/REC-SVG-20010904/DTD/svg10.dtd">
<svg version="1.0" xmlns="http://www.w3.org/2000/svg"
 width="495.000000pt" height="418.000000pt" viewBox="0 0 495.000000 418.000000"
 preserveAspectRatio="xMidYMid meet">

<g transform="translate(0.000000,418.000000) scale(0.100000,-0.100000)"
fill="#000000" stroke="none">
<path d="M365 4160 c-113 -23 -219 -86 -282 -168 -68 -89 -63 39 -61 -1927 l3
-1780 28 -57 c52 -105 176 -192 312 -217 34 -6 187 -11 367 -11 343 0 362 3
398 62 14 24 18 43 14 68 -10 65 -47 160 -76 194 l-28 35 -268 3 c-248 3 -270
4 -307 24 -22 11 -50 36 -63 54 l-22 33 0 1623 0 1622 27 33 c54 64 78 69 370
69 l261 0 28 33 c33 39 53 83 70 157 12 49 11 59 -4 90 -33 68 -47 70 -407 69
-176 -1 -338 -5 -360 -9z"/>
<path d="M3896 4139 c-39 -34 -76 -119 -76 -175 0 -50 22 -95 64 -132 l37 -32
252 0 c242 0 255 -1 297 -22 25 -13 55 -38 67 -57 l23 -34 0 -1599 c0 -1802 7
-1645 -79 -1696 l-46 -27 -262 -3 -261 -3 -27 -27 c-69 -69 -82 -153 -39 -241
46 -92 42 -91 394 -91 333 0 396 7 490 55 70 35 146 108 178 170 l27 50 0
1810 0 1810 -27 50 c-32 62 -108 135 -178 170 -94 48 -157 55 -492 55 l-307 0
-35 -31z"/>
<path d="M1150 2850 l0 -180 183 2 182 3 3 178 2 177 -185 0 -185 0 0 -180z"/>
<path d="M2290 2850 l0 -180 180 0 180 0 0 180 0 180 -180 0 -180 0 0 -180z"/>
<path d="M3430 2850 l0 -180 180 0 180 0 0 180 0 180 -180 0 -180 0 0 -180z"/>
<path d="M1150 2095 l0 -175 185 0 185 0 0 175 0 175 -185 0 -185 0 0 -175z"/>
<path d="M2290 2095 l0 -175 180 0 180 0 0 175 0 175 -180 0 -180 0 0 -175z"/>
<path d="M3430 2095 l0 -175 180 0 180 0 0 175 0 175 -180 0 -180 0 0 -175z"/>
<path d="M1150 1340 l0 -180 185 0 185 0 -2 178 -3 177 -182 3 -183 2 0 -180z"/>
<path d="M2290 1340 l0 -180 180 0 180 0 0 180 0 180 -180 0 -180 0 0 -180z"/>
<path d="M3430 1340 l0 -180 180 0 180 0 0 180 0 180 -180 0 -180 0 0 -180z"/>
</g>
</svg>
